<mxfile host="app.diagrams.net" modified="2020-12-23T15:09:00.473Z" agent="5.0 (Windows NT 10.0; Win64; x64) AppleWebKit/537.36 (KHTML, like Gecko) Chrome/87.0.4280.88 Safari/537.36" etag="mEIwtr5OIpz-ceKGFbMh" version="14.0.1" type="github">
  <diagram id="1ZXN48mMW1hBUoKLbVNU" name="Page-1">
    <mxGraphModel dx="2500" dy="934" grid="1" gridSize="10" guides="1" tooltips="1" connect="1" arrows="1" fold="1" page="1" pageScale="1" pageWidth="827" pageHeight="1169" math="0" shadow="0">
      <root>
        <mxCell id="0" />
        <mxCell id="1" parent="0" />
        <mxCell id="30snljQ4G6VU_JpGIBzL-56" value="" style="endArrow=classic;html=1;exitX=0.74;exitY=1.007;exitDx=0;exitDy=0;exitPerimeter=0;" parent="1" source="30snljQ4G6VU_JpGIBzL-22" edge="1">
          <mxGeometry width="50" height="50" relative="1" as="geometry">
            <mxPoint x="650" y="370" as="sourcePoint" />
            <mxPoint x="550" y="370" as="targetPoint" />
            <Array as="points">
              <mxPoint x="950" y="370" />
            </Array>
          </mxGeometry>
        </mxCell>
        <mxCell id="30snljQ4G6VU_JpGIBzL-57" value="sale.order.add" style="text;html=1;align=center;verticalAlign=middle;resizable=0;points=[];autosize=1;" parent="1" vertex="1">
          <mxGeometry x="585" y="350" width="90" height="20" as="geometry" />
        </mxCell>
        <mxCell id="30snljQ4G6VU_JpGIBzL-61" style="edgeStyle=orthogonalEdgeStyle;rounded=0;orthogonalLoop=1;jettySize=auto;html=1;exitX=1;exitY=0.75;exitDx=0;exitDy=0;" parent="1" source="30snljQ4G6VU_JpGIBzL-54" edge="1">
          <mxGeometry relative="1" as="geometry">
            <mxPoint x="790" y="380.2758620689656" as="targetPoint" />
          </mxGeometry>
        </mxCell>
        <mxCell id="30snljQ4G6VU_JpGIBzL-62" value="ID_ORDER" style="text;html=1;align=center;verticalAlign=middle;resizable=0;points=[];autosize=1;" parent="1" vertex="1">
          <mxGeometry x="580" y="380" width="80" height="20" as="geometry" />
        </mxCell>
        <mxCell id="30snljQ4G6VU_JpGIBzL-63" value="" style="endArrow=classic;html=1;exitX=0;exitY=0.5;exitDx=0;exitDy=0;" parent="1" source="30snljQ4G6VU_JpGIBzL-27" edge="1">
          <mxGeometry width="50" height="50" relative="1" as="geometry">
            <mxPoint x="650" y="570" as="sourcePoint" />
            <mxPoint x="550" y="550" as="targetPoint" />
          </mxGeometry>
        </mxCell>
        <mxCell id="30snljQ4G6VU_JpGIBzL-71" value="" style="endArrow=classic;html=1;exitX=0;exitY=0;exitDx=0;exitDy=0;exitPerimeter=0;" parent="1" source="30snljQ4G6VU_JpGIBzL-34" edge="1">
          <mxGeometry width="50" height="50" relative="1" as="geometry">
            <mxPoint x="650" y="750" as="sourcePoint" />
            <mxPoint x="550" y="720" as="targetPoint" />
          </mxGeometry>
        </mxCell>
        <mxCell id="30snljQ4G6VU_JpGIBzL-72" value="sale.shipment.add" style="text;html=1;align=center;verticalAlign=middle;resizable=0;points=[];autosize=1;" parent="1" vertex="1">
          <mxGeometry x="565" y="700" width="110" height="20" as="geometry" />
        </mxCell>
        <mxCell id="30snljQ4G6VU_JpGIBzL-74" value="" style="endArrow=classic;html=1;exitX=0.313;exitY=1.016;exitDx=0;exitDy=0;exitPerimeter=0;" parent="1" source="30snljQ4G6VU_JpGIBzL-41" edge="1">
          <mxGeometry width="50" height="50" relative="1" as="geometry">
            <mxPoint x="650" y="820" as="sourcePoint" />
            <mxPoint x="550" y="880" as="targetPoint" />
            <Array as="points">
              <mxPoint x="838" y="880" />
            </Array>
          </mxGeometry>
        </mxCell>
        <mxCell id="30snljQ4G6VU_JpGIBzL-75" value="crm.product.add" style="text;html=1;align=center;verticalAlign=middle;resizable=0;points=[];autosize=1;" parent="1" vertex="1">
          <mxGeometry x="580" y="860" width="100" height="20" as="geometry" />
        </mxCell>
        <mxCell id="30snljQ4G6VU_JpGIBzL-77" style="edgeStyle=orthogonalEdgeStyle;rounded=0;orthogonalLoop=1;jettySize=auto;html=1;exitX=1;exitY=0.5;exitDx=0;exitDy=0;" parent="1" source="30snljQ4G6VU_JpGIBzL-73" edge="1">
          <mxGeometry relative="1" as="geometry">
            <mxPoint x="800" y="900.2758620689656" as="targetPoint" />
          </mxGeometry>
        </mxCell>
        <mxCell id="30snljQ4G6VU_JpGIBzL-78" value="ID_PRODUCT" style="text;html=1;align=center;verticalAlign=middle;resizable=0;points=[];autosize=1;" parent="1" vertex="1">
          <mxGeometry x="595" y="880" width="90" height="20" as="geometry" />
        </mxCell>
        <mxCell id="30snljQ4G6VU_JpGIBzL-79" value="" style="endArrow=classic;html=1;" parent="1" edge="1">
          <mxGeometry width="50" height="50" relative="1" as="geometry">
            <mxPoint x="800" y="920" as="sourcePoint" />
            <mxPoint x="560" y="920" as="targetPoint" />
          </mxGeometry>
        </mxCell>
        <mxCell id="30snljQ4G6VU_JpGIBzL-82" value="" style="endArrow=classic;html=1;" parent="1" edge="1">
          <mxGeometry width="50" height="50" relative="1" as="geometry">
            <mxPoint x="560" y="940" as="sourcePoint" />
            <mxPoint x="800" y="940" as="targetPoint" />
          </mxGeometry>
        </mxCell>
        <mxCell id="30snljQ4G6VU_JpGIBzL-84" value="" style="endArrow=classic;html=1;" parent="1" edge="1">
          <mxGeometry width="50" height="50" relative="1" as="geometry">
            <mxPoint x="800" y="960" as="sourcePoint" />
            <mxPoint x="560" y="960" as="targetPoint" />
          </mxGeometry>
        </mxCell>
        <mxCell id="30snljQ4G6VU_JpGIBzL-86" style="edgeStyle=orthogonalEdgeStyle;rounded=0;orthogonalLoop=1;jettySize=auto;html=1;exitX=1;exitY=0.5;exitDx=0;exitDy=0;" parent="1" source="30snljQ4G6VU_JpGIBzL-5" edge="1">
          <mxGeometry relative="1" as="geometry">
            <mxPoint x="400" y="169.52941176470586" as="targetPoint" />
          </mxGeometry>
        </mxCell>
        <mxCell id="30snljQ4G6VU_JpGIBzL-1" value="Обмен" style="swimlane;html=1;childLayout=stackLayout;resizeParent=1;resizeParentMax=0;startSize=20;" parent="1" vertex="1">
          <mxGeometry x="-140" y="70" width="1235" height="940" as="geometry" />
        </mxCell>
        <mxCell id="30snljQ4G6VU_JpGIBzL-2" value="БУС" style="swimlane;html=1;startSize=20;" parent="30snljQ4G6VU_JpGIBzL-1" vertex="1">
          <mxGeometry y="20" width="410" height="920" as="geometry" />
        </mxCell>
        <mxCell id="30snljQ4G6VU_JpGIBzL-5" value="&lt;font style=&quot;font-size: 16px&quot;&gt;Заказ&lt;/font&gt;" style="rounded=0;whiteSpace=wrap;html=1;" parent="30snljQ4G6VU_JpGIBzL-2" vertex="1">
          <mxGeometry x="135" y="50" width="140" height="60" as="geometry" />
        </mxCell>
        <mxCell id="30snljQ4G6VU_JpGIBzL-3" value="Б24" style="swimlane;html=1;startSize=20;" parent="30snljQ4G6VU_JpGIBzL-1" vertex="1">
          <mxGeometry x="410" y="20" width="425" height="920" as="geometry" />
        </mxCell>
        <mxCell id="30snljQ4G6VU_JpGIBzL-6" value="&lt;font style=&quot;font-size: 16px&quot;&gt;Сделка&lt;/font&gt;" style="rounded=0;whiteSpace=wrap;html=1;" parent="30snljQ4G6VU_JpGIBzL-3" vertex="1">
          <mxGeometry x="141.25" y="50" width="127.5" height="60" as="geometry" />
        </mxCell>
        <mxCell id="30snljQ4G6VU_JpGIBzL-54" value="&lt;span style=&quot;font-size: 16px&quot;&gt;Заказы&lt;/span&gt;" style="rounded=0;whiteSpace=wrap;html=1;" parent="30snljQ4G6VU_JpGIBzL-3" vertex="1">
          <mxGeometry x="146.25" y="245" width="127.5" height="60" as="geometry" />
        </mxCell>
        <mxCell id="30snljQ4G6VU_JpGIBzL-58" value="&lt;span style=&quot;font-size: 16px&quot;&gt;Оплаты&lt;/span&gt;" style="rounded=0;whiteSpace=wrap;html=1;" parent="30snljQ4G6VU_JpGIBzL-3" vertex="1">
          <mxGeometry x="146.25" y="430" width="127.5" height="60" as="geometry" />
        </mxCell>
        <mxCell id="30snljQ4G6VU_JpGIBzL-64" value="sale.payment.add" style="text;html=1;align=center;verticalAlign=middle;resizable=0;points=[];autosize=1;" parent="30snljQ4G6VU_JpGIBzL-3" vertex="1">
          <mxGeometry x="300" y="440" width="110" height="20" as="geometry" />
        </mxCell>
        <mxCell id="30snljQ4G6VU_JpGIBzL-70" value="&lt;span style=&quot;font-size: 16px&quot;&gt;Отгрузки&lt;/span&gt;" style="rounded=0;whiteSpace=wrap;html=1;" parent="30snljQ4G6VU_JpGIBzL-3" vertex="1">
          <mxGeometry x="146.25" y="610" width="127.5" height="60" as="geometry" />
        </mxCell>
        <mxCell id="30snljQ4G6VU_JpGIBzL-73" value="&lt;span style=&quot;font-size: 16px&quot;&gt;Товары&lt;/span&gt;" style="rounded=0;whiteSpace=wrap;html=1;" parent="30snljQ4G6VU_JpGIBzL-3" vertex="1">
          <mxGeometry x="146.25" y="780" width="127.5" height="60" as="geometry" />
        </mxCell>
        <mxCell id="30snljQ4G6VU_JpGIBzL-81" value="sale.basketitem.add" style="text;html=1;align=center;verticalAlign=middle;resizable=0;points=[];autosize=1;" parent="30snljQ4G6VU_JpGIBzL-3" vertex="1">
          <mxGeometry x="300" y="810" width="120" height="20" as="geometry" />
        </mxCell>
        <mxCell id="30snljQ4G6VU_JpGIBzL-83" value="ID_BASKET" style="text;html=1;align=center;verticalAlign=middle;resizable=0;points=[];autosize=1;" parent="30snljQ4G6VU_JpGIBzL-3" vertex="1">
          <mxGeometry x="320" y="830" width="80" height="20" as="geometry" />
        </mxCell>
        <mxCell id="30snljQ4G6VU_JpGIBzL-85" value="sale.shipmentitem.add" style="text;html=1;align=center;verticalAlign=middle;resizable=0;points=[];autosize=1;" parent="30snljQ4G6VU_JpGIBzL-3" vertex="1">
          <mxGeometry x="285" y="850" width="140" height="20" as="geometry" />
        </mxCell>
        <mxCell id="30snljQ4G6VU_JpGIBzL-53" value="ID_DEAL" style="text;html=1;align=center;verticalAlign=middle;resizable=0;points=[];autosize=1;" parent="30snljQ4G6VU_JpGIBzL-3" vertex="1">
          <mxGeometry x="315" y="140" width="70" height="20" as="geometry" />
        </mxCell>
        <mxCell id="30snljQ4G6VU_JpGIBzL-4" value="CSV" style="swimlane;html=1;startSize=20;" parent="30snljQ4G6VU_JpGIBzL-1" vertex="1">
          <mxGeometry x="835" y="20" width="400" height="920" as="geometry" />
        </mxCell>
        <mxCell id="30snljQ4G6VU_JpGIBzL-8" value="Заявка = DEAL" style="shape=table;html=1;whiteSpace=wrap;startSize=30;container=1;collapsible=0;childLayout=tableLayout;fontStyle=1;align=center;" parent="30snljQ4G6VU_JpGIBzL-4" vertex="1">
          <mxGeometry x="75" y="30" width="315" height="80" as="geometry" />
        </mxCell>
        <mxCell id="30snljQ4G6VU_JpGIBzL-9" value="" style="shape=partialRectangle;html=1;whiteSpace=wrap;collapsible=0;dropTarget=0;pointerEvents=0;fillColor=none;top=0;left=0;bottom=0;right=0;points=[[0,0.5],[1,0.5]];portConstraint=eastwest;" parent="30snljQ4G6VU_JpGIBzL-8" vertex="1">
          <mxGeometry y="30" width="315" height="50" as="geometry" />
        </mxCell>
        <mxCell id="30snljQ4G6VU_JpGIBzL-10" value="номер&lt;br&gt;заявки в 1С" style="shape=partialRectangle;html=1;whiteSpace=wrap;connectable=0;fillColor=none;top=0;left=0;bottom=0;right=0;overflow=hidden;" parent="30snljQ4G6VU_JpGIBzL-9" vertex="1">
          <mxGeometry width="33" height="50" as="geometry" />
        </mxCell>
        <mxCell id="30snljQ4G6VU_JpGIBzL-11" value="&amp;nbsp;ORIGIN_ID" style="shape=partialRectangle;html=1;whiteSpace=wrap;connectable=0;fillColor=none;top=0;left=0;bottom=0;right=0;overflow=hidden;" parent="30snljQ4G6VU_JpGIBzL-9" vertex="1">
          <mxGeometry x="33" width="66" height="50" as="geometry" />
        </mxCell>
        <mxCell id="30snljQ4G6VU_JpGIBzL-12" value="Идентификатор контрагента" style="shape=partialRectangle;html=1;whiteSpace=wrap;connectable=0;fillColor=none;top=0;left=0;bottom=0;right=0;overflow=hidden;" parent="30snljQ4G6VU_JpGIBzL-9" vertex="1">
          <mxGeometry x="99" width="108" height="50" as="geometry" />
        </mxCell>
        <mxCell id="30snljQ4G6VU_JpGIBzL-90" value="Дата заявки" style="shape=partialRectangle;html=1;whiteSpace=wrap;connectable=0;fillColor=none;top=0;left=0;bottom=0;right=0;overflow=hidden;" parent="30snljQ4G6VU_JpGIBzL-9" vertex="1">
          <mxGeometry x="207" width="108" height="50" as="geometry" />
        </mxCell>
        <mxCell id="30snljQ4G6VU_JpGIBzL-21" value="Заказы = ORDER" style="shape=table;html=1;whiteSpace=wrap;startSize=30;container=1;collapsible=0;childLayout=tableLayout;fontStyle=1;align=center;" parent="30snljQ4G6VU_JpGIBzL-4" vertex="1">
          <mxGeometry x="75" y="200" width="250" height="70" as="geometry" />
        </mxCell>
        <mxCell id="30snljQ4G6VU_JpGIBzL-22" value="" style="shape=partialRectangle;html=1;whiteSpace=wrap;collapsible=0;dropTarget=0;pointerEvents=0;fillColor=none;top=0;left=0;bottom=0;right=0;points=[[0,0.5],[1,0.5]];portConstraint=eastwest;" parent="30snljQ4G6VU_JpGIBzL-21" vertex="1">
          <mxGeometry y="30" width="250" height="40" as="geometry" />
        </mxCell>
        <mxCell id="30snljQ4G6VU_JpGIBzL-23" value="id" style="shape=partialRectangle;html=1;whiteSpace=wrap;connectable=0;fillColor=none;top=0;left=0;bottom=0;right=0;overflow=hidden;" parent="30snljQ4G6VU_JpGIBzL-22" vertex="1">
          <mxGeometry width="40" height="40" as="geometry" />
        </mxCell>
        <mxCell id="30snljQ4G6VU_JpGIBzL-24" value="lid" style="shape=partialRectangle;html=1;whiteSpace=wrap;connectable=0;fillColor=none;top=0;left=0;bottom=0;right=0;overflow=hidden;" parent="30snljQ4G6VU_JpGIBzL-22" vertex="1">
          <mxGeometry x="40" width="80" height="40" as="geometry" />
        </mxCell>
        <mxCell id="30snljQ4G6VU_JpGIBzL-25" value="ID_DEAL" style="shape=partialRectangle;html=1;whiteSpace=wrap;connectable=0;fillColor=none;top=0;left=0;bottom=0;right=0;overflow=hidden;" parent="30snljQ4G6VU_JpGIBzL-22" vertex="1">
          <mxGeometry x="120" width="130" height="40" as="geometry" />
        </mxCell>
        <mxCell id="30snljQ4G6VU_JpGIBzL-26" value="Оплата = PAYMENT" style="shape=table;html=1;whiteSpace=wrap;startSize=30;container=1;collapsible=0;childLayout=tableLayout;fontStyle=1;align=center;" parent="30snljQ4G6VU_JpGIBzL-4" vertex="1">
          <mxGeometry x="15" y="410" width="370" height="70" as="geometry" />
        </mxCell>
        <mxCell id="30snljQ4G6VU_JpGIBzL-27" value="" style="shape=partialRectangle;html=1;whiteSpace=wrap;collapsible=0;dropTarget=0;pointerEvents=0;fillColor=none;top=0;left=0;bottom=0;right=0;points=[[0,0.5],[1,0.5]];portConstraint=eastwest;" parent="30snljQ4G6VU_JpGIBzL-26" vertex="1">
          <mxGeometry y="30" width="370" height="40" as="geometry" />
        </mxCell>
        <mxCell id="30snljQ4G6VU_JpGIBzL-28" value="ID_&lt;br&gt;ORDER" style="shape=partialRectangle;html=1;whiteSpace=wrap;connectable=0;fillColor=none;top=0;left=0;bottom=0;right=0;overflow=hidden;" parent="30snljQ4G6VU_JpGIBzL-27" vertex="1">
          <mxGeometry width="59" height="40" as="geometry" />
        </mxCell>
        <mxCell id="30snljQ4G6VU_JpGIBzL-29" value="sum" style="shape=partialRectangle;html=1;whiteSpace=wrap;connectable=0;fillColor=none;top=0;left=0;bottom=0;right=0;overflow=hidden;" parent="30snljQ4G6VU_JpGIBzL-27" vertex="1">
          <mxGeometry x="59" width="41" height="40" as="geometry" />
        </mxCell>
        <mxCell id="30snljQ4G6VU_JpGIBzL-30" value="status" style="shape=partialRectangle;html=1;whiteSpace=wrap;connectable=0;fillColor=none;top=0;left=0;bottom=0;right=0;overflow=hidden;" parent="30snljQ4G6VU_JpGIBzL-27" vertex="1">
          <mxGeometry x="100" width="70" height="40" as="geometry" />
        </mxCell>
        <mxCell id="30snljQ4G6VU_JpGIBzL-31" value="&lt;font style=&quot;font-size: 12px&quot;&gt;DATE_PAY_&lt;br&gt;BEFORE&lt;/font&gt;" style="shape=partialRectangle;html=1;whiteSpace=wrap;connectable=0;fillColor=none;top=0;left=0;bottom=0;right=0;overflow=hidden;" parent="30snljQ4G6VU_JpGIBzL-27" vertex="1">
          <mxGeometry x="170" width="100" height="40" as="geometry" />
        </mxCell>
        <mxCell id="30snljQ4G6VU_JpGIBzL-32" value="DATE_PAY" style="shape=partialRectangle;html=1;whiteSpace=wrap;connectable=0;fillColor=none;top=0;left=0;bottom=0;right=0;overflow=hidden;" parent="30snljQ4G6VU_JpGIBzL-27" vertex="1">
          <mxGeometry x="270" width="100" height="40" as="geometry" />
        </mxCell>
        <mxCell id="30snljQ4G6VU_JpGIBzL-33" value="Отгрузки = SHIPMENT" style="shape=table;html=1;whiteSpace=wrap;startSize=30;container=1;collapsible=0;childLayout=tableLayout;fontStyle=1;align=center;" parent="30snljQ4G6VU_JpGIBzL-4" vertex="1">
          <mxGeometry x="100" y="600" width="200" height="70" as="geometry" />
        </mxCell>
        <mxCell id="30snljQ4G6VU_JpGIBzL-34" value="" style="shape=partialRectangle;html=1;whiteSpace=wrap;collapsible=0;dropTarget=0;pointerEvents=0;fillColor=none;top=0;left=0;bottom=0;right=0;points=[[0,0.5],[1,0.5]];portConstraint=eastwest;" parent="30snljQ4G6VU_JpGIBzL-33" vertex="1">
          <mxGeometry y="30" width="200" height="40" as="geometry" />
        </mxCell>
        <mxCell id="30snljQ4G6VU_JpGIBzL-35" value="ID_&lt;br&gt;ORDER" style="shape=partialRectangle;html=1;whiteSpace=wrap;connectable=0;fillColor=none;top=0;left=0;bottom=0;right=0;overflow=hidden;" parent="30snljQ4G6VU_JpGIBzL-34" vertex="1">
          <mxGeometry width="59" height="40" as="geometry" />
        </mxCell>
        <mxCell id="30snljQ4G6VU_JpGIBzL-36" value="status" style="shape=partialRectangle;html=1;whiteSpace=wrap;connectable=0;fillColor=none;top=0;left=0;bottom=0;right=0;overflow=hidden;" parent="30snljQ4G6VU_JpGIBzL-34" vertex="1">
          <mxGeometry x="59" width="61" height="40" as="geometry" />
        </mxCell>
        <mxCell id="30snljQ4G6VU_JpGIBzL-38" value="Date" style="shape=partialRectangle;html=1;whiteSpace=wrap;connectable=0;fillColor=none;top=0;left=0;bottom=0;right=0;overflow=hidden;" parent="30snljQ4G6VU_JpGIBzL-34" vertex="1">
          <mxGeometry x="120" width="80" height="40" as="geometry" />
        </mxCell>
        <mxCell id="30snljQ4G6VU_JpGIBzL-40" value="Товары = PRODUCT" style="shape=table;html=1;whiteSpace=wrap;startSize=30;container=1;collapsible=0;childLayout=tableLayout;fontStyle=1;align=center;" parent="30snljQ4G6VU_JpGIBzL-4" vertex="1">
          <mxGeometry x="60" y="710" width="280" height="70" as="geometry" />
        </mxCell>
        <mxCell id="30snljQ4G6VU_JpGIBzL-41" value="" style="shape=partialRectangle;html=1;whiteSpace=wrap;collapsible=0;dropTarget=0;pointerEvents=0;fillColor=none;top=0;left=0;bottom=0;right=0;points=[[0,0.5],[1,0.5]];portConstraint=eastwest;" parent="30snljQ4G6VU_JpGIBzL-40" vertex="1">
          <mxGeometry y="30" width="280" height="40" as="geometry" />
        </mxCell>
        <mxCell id="30snljQ4G6VU_JpGIBzL-42" value="ID_&lt;br&gt;ORDER" style="shape=partialRectangle;html=1;whiteSpace=wrap;connectable=0;fillColor=none;top=0;left=0;bottom=0;right=0;overflow=hidden;" parent="30snljQ4G6VU_JpGIBzL-41" vertex="1">
          <mxGeometry width="59" height="40" as="geometry" />
        </mxCell>
        <mxCell id="30snljQ4G6VU_JpGIBzL-43" value="XML_ID" style="shape=partialRectangle;html=1;whiteSpace=wrap;connectable=0;fillColor=none;top=0;left=0;bottom=0;right=0;overflow=hidden;" parent="30snljQ4G6VU_JpGIBzL-41" vertex="1">
          <mxGeometry x="59" width="61" height="40" as="geometry" />
        </mxCell>
        <mxCell id="30snljQ4G6VU_JpGIBzL-44" value="Quantity" style="shape=partialRectangle;html=1;whiteSpace=wrap;connectable=0;fillColor=none;top=0;left=0;bottom=0;right=0;overflow=hidden;" parent="30snljQ4G6VU_JpGIBzL-41" vertex="1">
          <mxGeometry x="120" width="80" height="40" as="geometry" />
        </mxCell>
        <mxCell id="30snljQ4G6VU_JpGIBzL-46" value="PRICE" style="shape=partialRectangle;html=1;whiteSpace=wrap;connectable=0;fillColor=none;top=0;left=0;bottom=0;right=0;overflow=hidden;" parent="30snljQ4G6VU_JpGIBzL-41" vertex="1">
          <mxGeometry x="200" width="80" height="40" as="geometry" />
        </mxCell>
        <mxCell id="30snljQ4G6VU_JpGIBzL-48" value="" style="endArrow=classic;html=1;exitX=0.293;exitY=1.033;exitDx=0;exitDy=0;exitPerimeter=0;entryX=0.916;entryY=1.033;entryDx=0;entryDy=0;entryPerimeter=0;" parent="30snljQ4G6VU_JpGIBzL-1" source="30snljQ4G6VU_JpGIBzL-9" target="30snljQ4G6VU_JpGIBzL-6" edge="1">
          <mxGeometry width="50" height="50" relative="1" as="geometry">
            <mxPoint x="790" y="300" as="sourcePoint" />
            <mxPoint x="680" y="130" as="targetPoint" />
            <Array as="points">
              <mxPoint x="983" y="150" />
              <mxPoint x="668" y="150" />
            </Array>
          </mxGeometry>
        </mxCell>
        <mxCell id="30snljQ4G6VU_JpGIBzL-88" value="" style="endArrow=classic;html=1;exitX=1;exitY=0.25;exitDx=0;exitDy=0;entryX=-0.021;entryY=0.153;entryDx=0;entryDy=0;entryPerimeter=0;" parent="30snljQ4G6VU_JpGIBzL-1" source="30snljQ4G6VU_JpGIBzL-5" target="30snljQ4G6VU_JpGIBzL-8" edge="1">
          <mxGeometry width="50" height="50" relative="1" as="geometry">
            <mxPoint x="710" y="410" as="sourcePoint" />
            <mxPoint x="760" y="360" as="targetPoint" />
            <Array as="points">
              <mxPoint x="350" y="85" />
              <mxPoint x="350" y="61" />
            </Array>
          </mxGeometry>
        </mxCell>
        <mxCell id="30snljQ4G6VU_JpGIBzL-89" value="" style="endArrow=classic;html=1;exitX=0.704;exitY=1.05;exitDx=0;exitDy=0;exitPerimeter=0;entryX=0.444;entryY=1.075;entryDx=0;entryDy=0;entryPerimeter=0;" parent="30snljQ4G6VU_JpGIBzL-1" source="30snljQ4G6VU_JpGIBzL-6" target="30snljQ4G6VU_JpGIBzL-9" edge="1">
          <mxGeometry width="50" height="50" relative="1" as="geometry">
            <mxPoint x="720" y="320" as="sourcePoint" />
            <mxPoint x="770" y="270" as="targetPoint" />
            <Array as="points">
              <mxPoint x="641" y="160" />
              <mxPoint x="1020" y="160" />
            </Array>
          </mxGeometry>
        </mxCell>
      </root>
    </mxGraphModel>
  </diagram>
</mxfile>
